<svg xmlns="http://www.w3.org/2000/svg" width="40" height="40" fill="none"><path fill="url(#a)" stroke="#2D63FF" stroke-width="1.2" d="M16.611 6.455a3.741 3.741 0 0 1 5.778 0 4.941 4.941 0 0 0 4.293 1.778 3.741 3.741 0 0 1 4.085 4.085 4.941 4.941 0 0 0 1.778 4.293 3.741 3.741 0 0 1 0 5.778 4.941 4.941 0 0 0-1.778 4.293 3.741 3.741 0 0 1-4.085 4.085 4.941 4.941 0 0 0-4.293 1.778 3.741 3.741 0 0 1-5.778 0 4.941 4.941 0 0 0-4.293-1.778 3.741 3.741 0 0 1-4.085-4.085 4.941 4.941 0 0 0-1.778-4.293 3.741 3.741 0 0 1 0-5.778 4.941 4.941 0 0 0 1.778-4.293 3.741 3.741 0 0 1 4.085-4.085 4.941 4.941 0 0 0 4.293-1.778Z"/><path stroke="#2D63FF" stroke-linecap="round" stroke-linejoin="round" stroke-width="1.2" d="m15 20 3 3 6-6"/><defs><linearGradient id="a" x1="19.5" x2="19.5" y1="2" y2="37" gradientUnits="userSpaceOnUse"><stop stop-color="#2D63FF" stop-opacity="0"/><stop offset="1" stop-color="#2D63FF" stop-opacity=".4"/></linearGradient></defs></svg>