<?xml version="1.0" encoding="utf-8"?>
<!-- Generator: Adobe Illustrator 21.0.0, SVG Export Plug-In . SVG Version: 6.00 Build 0)  -->
<svg version="1.1" id="Layer_1" xmlns="http://www.w3.org/2000/svg" xmlns:xlink="http://www.w3.org/1999/xlink" x="0px" y="0px"
	 viewBox="0 0 1729 1000" style="enable-background:new 0 0 1729 1000;" xml:space="preserve">
<style type="text/css">
	.st0{fill:#7FD3F2;}
	.st1{fill:#3F76BB;}
	.st2{fill:#5CA3D9;}
	.st3{fill:#2858A5;}
</style>
<g>
	<path class="st0" d="M831.2,657.7c8,23.1,22.1,47.7,44.8,73.1l58.8-58.8l-57.6-59.2L831.2,657.7z"/>
	<path class="st1" d="M829.2,563.7l47.9,49.2l62.7-61.1L876,486.5C876,486.5,843.5,516.3,829.2,563.7z"/>
	<polygon class="st2" points="939.9,551.8 877.2,612.9 934.8,672.1 996.8,610.1 	"/>
	<path class="st2" d="M831.2,657.7l46-44.8l-47.9-49.2C821.3,590.2,819,622.2,831.2,657.7z"/>
	<polygon class="st1" points="821.3,427.3 877.1,485.4 934.9,427.6 879.4,370.7 	"/>
	<polygon class="st0" points="939.2,312.4 876,249.2 817.8,307.5 879.4,370.7 	"/>
	<polygon class="st2" points="934.9,427.6 994.6,367.9 939.2,312.4 879.4,370.7 	"/>
	<polygon class="st2" points="879.4,370.7 817.8,307.5 760.9,364.4 821.3,427.3 	"/>
	<path class="st3" d="M876,486.5l1.1-1.1l-55.8-58.1l-64.1,62.5l72,73.9C843.5,516.3,876,486.5,876,486.5z"/>
	<polygon class="st3" points="697.1,428.1 635.2,490 695.3,550.1 757.2,489.8 	"/>
	<path class="st1" d="M831.2,657.7c-12.2-35.5-9.9-67.5-2-94l-72-73.9l-61.9,60.3l121.6,121.6l59.2,59.2
		C853.3,705.4,839.2,680.8,831.2,657.7z"/>
	<polygon class="st1" points="821.3,427.3 760.9,364.4 697.1,428.1 757.2,489.8 	"/>
</g>
</svg>
