<svg width="24" height="24" viewBox="0 0 24 24" fill="none" xmlns="http://www.w3.org/2000/svg"><path d="M11.460 3.156 C 10.842 3.383,7.043 5.178,6.986 5.270 C 6.969 5.298,7.170 5.321,7.590 5.341 C 8.342 5.377,14.815 5.332,15.096 5.290 L 15.292 5.260 15.176 5.122 C 14.930 4.831,13.436 3.454,13.233 3.332 C 12.927 3.148,12.620 3.080,12.102 3.081 C 11.775 3.083,11.608 3.102,11.460 3.156 M6.463 6.649 C 6.749 6.941,8.755 9.016,10.921 11.259 C 13.088 13.503,15.578 16.081,16.456 16.989 L 18.052 18.640 19.526 18.640 L 21.000 18.640 21.000 14.785 L 21.000 10.929 18.910 8.896 C 17.761 7.777,16.658 6.706,16.460 6.516 L 16.100 6.170 11.022 6.144 L 5.944 6.118 6.463 6.649 M5.387 6.867 C 5.372 6.881,5.360 9.228,5.360 12.081 L 5.360 17.268 7.526 19.634 L 9.692 22.000 13.586 22.000 L 17.480 22.000 17.479 20.570 L 17.479 19.140 16.329 17.960 C 15.697 17.311,13.903 15.466,12.343 13.860 C 8.883 10.299,5.483 6.840,5.443 6.840 C 5.427 6.840,5.401 6.852,5.387 6.867 M4.047 8.590 C 3.223 10.222,2.368 12.075,2.163 12.672 C 1.942 13.314,2.003 13.661,2.431 14.193 C 2.693 14.519,3.723 15.630,4.217 16.119 L 4.600 16.498 4.600 12.619 C 4.600 8.857,4.581 7.720,4.517 7.720 C 4.500 7.720,4.289 8.111,4.047 8.590 " fill="#373B4D" stroke="none" fill-rule="evenodd"></path></svg>