<svg width="24" height="24" viewBox="0 0 24 24" fill="none" xmlns="http://www.w3.org/2000/svg"><path d="M10.400 3.158 C 9.727 3.237,8.463 3.708,7.511 4.236 C 6.786 4.638,5.892 5.370,5.234 6.100 C 4.173 7.277,3.388 8.950,3.095 10.662 C 3.009 11.160,2.999 12.542,3.076 13.180 C 3.177 14.019,3.471 14.969,3.917 15.900 C 4.408 16.922,4.827 17.509,5.679 18.363 C 6.729 19.416,7.777 20.066,9.160 20.522 C 11.329 21.238,13.500 21.133,15.640 20.211 C 17.605 19.364,19.313 17.662,20.182 15.686 C 21.478 12.739,21.220 9.667,19.451 6.986 C 19.188 6.587,18.981 6.337,18.526 5.871 C 18.204 5.541,17.811 5.167,17.654 5.041 C 16.880 4.417,15.777 3.816,14.760 3.462 C 13.932 3.174,13.900 3.170,12.200 3.148 C 11.353 3.137,10.543 3.142,10.400 3.158 M11.402 4.470 C 11.403 4.839,11.420 5.545,11.440 6.040 C 11.515 7.869,11.532 8.942,11.487 8.900 C 11.398 8.818,11.334 7.786,11.216 4.530 L 11.189 3.800 11.294 3.800 L 11.400 3.800 11.402 4.470 M13.454 4.569 C 13.485 5.265,13.481 6.293,13.444 6.780 L 13.417 7.140 13.386 6.800 C 13.346 6.358,13.286 4.045,13.312 3.945 C 13.331 3.875,13.337 3.874,13.380 3.933 C 13.408 3.971,13.438 4.233,13.454 4.569 M8.373 4.850 C 8.403 4.972,8.505 6.112,8.578 7.140 C 8.611 7.602,8.649 8.129,8.663 8.310 C 8.678 8.522,8.673 8.640,8.647 8.640 C 8.625 8.640,8.596 8.591,8.583 8.530 C 8.555 8.396,8.281 5.007,8.280 4.790 C 8.280 4.720,8.353 4.767,8.373 4.850 M14.495 5.170 C 14.530 5.300,14.518 6.322,14.480 6.440 C 14.449 6.538,14.448 6.538,14.443 6.420 C 14.441 6.354,14.421 6.042,14.400 5.726 C 14.378 5.410,14.370 5.136,14.383 5.116 C 14.421 5.053,14.470 5.077,14.495 5.170 M10.375 5.552 C 10.453 6.604,10.448 7.234,10.361 7.181 C 10.344 7.170,10.318 7.066,10.305 6.951 C 10.259 6.561,10.199 5.194,10.226 5.151 C 10.281 5.061,10.353 5.253,10.375 5.552 M16.575 5.690 C 16.612 5.830,16.603 6.853,16.564 6.915 C 16.525 6.977,16.498 6.803,16.457 6.214 C 16.432 5.849,16.457 5.600,16.519 5.600 C 16.536 5.600,16.562 5.640,16.575 5.690 M12.474 6.460 C 12.566 7.545,12.571 7.669,12.520 7.700 C 12.397 7.776,12.366 7.625,12.338 6.814 C 12.310 6.024,12.332 5.683,12.399 5.860 C 12.416 5.904,12.449 6.174,12.474 6.460 M17.588 9.840 C 17.586 11.170,17.579 11.415,17.558 10.880 C 17.542 10.495,17.531 9.307,17.532 8.240 C 17.534 6.649,17.540 6.462,17.562 7.200 C 17.577 7.695,17.589 8.883,17.588 9.840 M9.482 6.889 C 9.527 7.269,9.493 7.803,9.433 7.643 C 9.377 7.492,9.345 6.405,9.399 6.489 C 9.423 6.528,9.461 6.708,9.482 6.889 M15.590 8.260 C 15.589 8.999,15.576 9.403,15.558 9.260 C 15.542 9.128,15.529 8.462,15.530 7.780 C 15.531 7.041,15.544 6.637,15.562 6.780 C 15.578 6.912,15.591 7.578,15.590 8.260 M5.776 6.910 C 5.806 7.053,5.869 7.781,5.902 8.340 C 5.919 8.641,5.914 8.767,5.886 8.740 C 5.787 8.643,5.620 6.800,5.711 6.800 C 5.734 6.800,5.764 6.850,5.776 6.910 M14.533 7.483 C 14.580 7.664,14.543 8.513,14.485 8.571 C 14.452 8.604,14.440 8.550,14.440 8.358 C 14.440 8.216,14.428 7.922,14.413 7.705 C 14.392 7.380,14.397 7.312,14.442 7.327 C 14.472 7.337,14.513 7.407,14.533 7.483 M6.735 7.710 C 6.856 8.628,6.992 10.625,6.932 10.587 C 6.854 10.539,6.640 8.389,6.640 7.651 C 6.640 7.453,6.706 7.494,6.735 7.710 M5.337 10.280 C 5.598 12.782,5.654 13.371,5.620 13.300 C 5.596 13.247,5.227 10.385,5.100 9.262 C 5.000 8.381,4.973 7.800,5.030 7.743 C 5.070 7.703,5.048 7.515,5.337 10.280 M4.534 10.124 C 4.660 11.091,4.691 11.427,4.640 11.260 C 4.595 11.113,4.413 9.846,4.382 9.460 C 4.339 8.929,4.431 9.331,4.534 10.124 M16.630 10.370 C 16.643 10.981,16.636 11.320,16.610 11.320 C 16.540 11.320,16.449 9.746,16.499 9.415 C 16.559 9.024,16.611 9.396,16.630 10.370 M11.820 9.601 C 12.709 9.700,13.367 10.040,14.046 10.751 C 14.719 11.455,15.129 12.300,15.320 13.376 C 15.551 14.679,15.800 17.476,15.800 18.776 L 15.800 19.314 15.470 19.442 C 14.279 19.903,13.282 20.124,12.120 20.185 L 11.620 20.211 11.634 18.518 C 11.649 16.807,11.612 15.847,11.498 14.985 C 11.402 14.259,11.375 14.328,11.851 14.090 C 12.076 13.978,12.304 13.840,12.356 13.784 L 12.451 13.683 12.344 13.541 C 12.284 13.464,12.218 13.400,12.196 13.400 C 12.173 13.400,11.774 13.518,11.308 13.663 C 10.312 13.972,9.965 14.020,8.980 13.987 C 8.390 13.968,8.313 13.956,7.989 13.839 C 7.422 13.633,6.869 13.227,6.757 12.933 C 6.709 12.806,6.710 12.364,6.759 12.064 C 6.804 11.793,6.968 11.498,7.251 11.180 C 7.476 10.927,7.772 10.682,7.735 10.779 C 7.707 10.851,7.937 11.120,8.026 11.120 C 8.077 11.120,8.280 10.879,8.280 10.818 C 8.280 10.799,8.222 10.723,8.150 10.649 C 8.000 10.494,7.960 10.541,8.501 10.237 C 9.099 9.899,9.697 9.670,10.149 9.604 C 10.479 9.555,11.398 9.554,11.820 9.601 M18.663 10.591 C 18.631 11.542,18.589 11.801,18.546 11.301 C 18.505 10.813,18.515 9.817,18.563 9.693 C 18.603 9.588,18.608 9.585,18.648 9.657 C 18.678 9.709,18.682 10.004,18.663 10.591 M9.378 10.858 C 9.199 11.037,9.297 11.361,9.530 11.359 C 9.640 11.359,9.685 11.329,9.772 11.201 C 9.867 11.063,9.858 11.009,9.716 10.876 C 9.564 10.734,9.505 10.731,9.378 10.858 M19.587 12.730 C 19.572 13.726,19.547 14.684,19.530 14.860 L 19.500 15.180 19.480 14.860 C 19.456 14.474,19.505 11.426,19.541 11.130 C 19.554 11.014,19.576 10.920,19.589 10.920 C 19.602 10.920,19.601 11.735,19.587 12.730 M6.239 11.470 C 6.240 11.542,6.223 11.600,6.202 11.600 C 6.152 11.600,6.103 11.340,6.141 11.278 C 6.185 11.208,6.239 11.313,6.239 11.470 M4.907 13.168 C 4.895 13.199,4.885 13.190,4.883 13.143 C 4.881 13.101,4.891 13.078,4.904 13.091 C 4.917 13.104,4.919 13.139,4.907 13.168 M4.993 13.680 C 4.992 13.744,4.979 13.723,4.958 13.620 C 4.940 13.532,4.926 13.415,4.927 13.360 C 4.928 13.296,4.941 13.317,4.962 13.420 C 4.980 13.508,4.994 13.625,4.993 13.680 M6.494 14.080 C 6.517 14.339,6.517 14.340,6.463 14.178 C 6.434 14.089,6.399 13.918,6.385 13.798 C 6.362 13.590,6.364 13.585,6.416 13.700 C 6.446 13.766,6.481 13.937,6.494 14.080 M5.028 13.990 C 5.018 14.028,5.009 13.997,5.009 13.920 C 5.009 13.843,5.018 13.812,5.028 13.850 C 5.038 13.888,5.038 13.952,5.028 13.990 M8.301 14.900 C 8.322 15.108,8.317 15.169,8.284 15.137 C 8.227 15.084,8.155 14.660,8.188 14.574 C 8.228 14.470,8.269 14.589,8.301 14.900 M18.591 15.980 C 18.591 16.200,18.577 16.434,18.560 16.500 C 18.542 16.571,18.529 16.365,18.529 16.000 C 18.528 15.634,18.541 15.421,18.560 15.480 C 18.578 15.535,18.592 15.760,18.591 15.980 M9.396 17.072 C 9.446 17.540,9.450 17.664,9.415 17.629 C 9.387 17.600,9.282 16.837,9.282 16.660 C 9.283 16.413,9.352 16.662,9.396 17.072 M16.599 17.560 C 16.599 17.703,16.581 17.847,16.560 17.880 C 16.533 17.921,16.521 17.820,16.521 17.560 C 16.521 17.300,16.533 17.199,16.560 17.240 C 16.581 17.273,16.599 17.417,16.599 17.560 M7.668 18.170 C 7.659 18.220,7.651 18.179,7.651 18.080 C 7.651 17.981,7.659 17.941,7.668 17.990 C 7.678 18.040,7.678 18.120,7.668 18.170 M8.657 19.100 C 8.689 19.401,8.622 19.311,8.583 19.000 C 8.565 18.861,8.569 18.795,8.593 18.820 C 8.614 18.842,8.642 18.968,8.657 19.100 " fill="#373B4D" stroke="none" fill-rule="evenodd"></path></svg>