<svg width="24" height="24" viewBox="0 0 24 24" fill="none" xmlns="http://www.w3.org/2000/svg"><path d="M4.200 11.460 L 4.200 15.200 4.894 15.200 L 5.587 15.200 5.616 12.890 C 5.632 11.620,5.658 10.517,5.674 10.440 L 5.704 10.300 5.914 10.599 C 6.149 10.934,6.870 12.034,8.092 13.920 L 8.908 15.180 9.634 15.191 L 10.360 15.202 10.360 11.461 L 10.360 7.720 9.686 7.720 L 9.012 7.720 8.984 9.950 C 8.955 12.332,8.942 12.600,8.859 12.513 C 8.777 12.428,8.096 11.386,6.881 9.490 L 5.747 7.720 4.974 7.720 L 4.200 7.720 4.200 11.460 M11.600 11.460 L 11.600 15.200 13.714 15.200 L 15.829 15.200 15.854 14.990 C 15.868 14.875,15.879 14.580,15.880 14.336 L 15.880 13.892 15.334 13.866 C 15.033 13.852,14.385 13.840,13.894 13.840 L 13.000 13.840 13.000 12.940 L 13.000 12.040 14.260 12.040 L 15.520 12.040 15.520 11.406 L 15.520 10.773 14.734 10.746 C 14.301 10.732,13.734 10.720,13.474 10.720 L 13.000 10.720 13.000 9.880 L 13.000 9.040 14.340 9.040 L 15.680 9.040 15.680 8.380 L 15.680 7.720 13.640 7.720 L 11.600 7.720 11.600 11.460 M15.889 8.370 L 15.900 9.020 16.890 9.031 L 17.880 9.041 17.880 12.121 L 17.880 15.200 18.580 15.200 L 19.280 15.200 19.280 12.120 L 19.280 9.040 20.280 9.040 L 21.280 9.040 21.280 8.380 L 21.280 7.720 18.579 7.720 L 15.878 7.720 15.889 8.370 M2.255 13.721 C 2.083 13.774,1.815 14.077,1.760 14.280 C 1.612 14.829,2.169 15.391,2.714 15.242 C 2.916 15.187,3.184 14.939,3.295 14.704 C 3.494 14.284,3.114 13.738,2.594 13.699 C 2.476 13.690,2.324 13.700,2.255 13.721 M2.496 13.983 C 2.545 14.112,2.487 14.886,2.424 14.950 C 2.347 15.027,2.040 14.632,2.040 14.455 C 2.040 14.358,2.225 14.055,2.330 13.982 C 2.440 13.904,2.465 13.904,2.496 13.983 " fill="#373B4D" stroke="none" fill-rule="evenodd"></path></svg>