<svg width="24" height="24" viewBox="0 0 24 24" fill="none" xmlns="http://www.w3.org/2000/svg"><path d="M10.840 7.801 C 9.328 8.013,8.081 8.817,7.300 10.084 C 6.479 11.416,6.580 13.136,7.541 14.189 C 8.579 15.327,10.205 15.696,11.809 15.159 C 12.758 14.841,13.603 14.183,14.159 13.328 L 14.374 13.000 14.479 13.270 C 14.852 14.227,15.816 15.014,16.960 15.295 C 18.191 15.597,19.698 15.282,20.823 14.488 C 21.169 14.243,21.662 13.756,21.899 13.423 C 22.577 12.474,22.772 11.237,22.419 10.125 C 22.179 9.368,21.564 8.684,20.758 8.279 C 20.151 7.974,19.714 7.875,18.977 7.876 C 17.834 7.877,16.749 8.210,15.966 8.800 C 15.378 9.243,14.822 9.941,14.541 10.587 L 14.405 10.900 12.655 10.910 C 11.123 10.920,10.897 10.929,10.835 10.984 C 10.757 11.055,10.260 12.045,10.218 12.214 C 10.163 12.435,10.189 12.440,11.365 12.440 C 11.956 12.440,12.440 12.452,12.440 12.466 C 12.440 12.509,12.150 12.851,12.004 12.980 C 11.665 13.280,11.346 13.427,10.920 13.482 C 10.136 13.583,9.437 13.230,9.112 12.569 C 8.985 12.312,8.980 12.284,8.983 11.841 C 8.986 11.322,9.056 11.075,9.310 10.689 C 9.687 10.116,10.470 9.679,11.117 9.680 C 11.608 9.681,12.029 9.844,12.363 10.162 C 12.477 10.271,12.586 10.360,12.606 10.360 C 12.694 10.360,14.583 9.872,14.615 9.841 C 14.663 9.793,14.381 9.285,14.148 9.001 C 14.042 8.871,13.844 8.674,13.707 8.562 C 13.389 8.301,12.748 7.980,12.340 7.878 C 11.969 7.785,11.224 7.747,10.840 7.801 M19.128 9.725 C 19.660 9.837,20.103 10.184,20.329 10.667 C 20.638 11.327,20.458 12.204,19.897 12.772 C 19.172 13.507,18.169 13.719,17.329 13.314 C 17.049 13.179,16.737 12.865,16.593 12.571 C 16.482 12.346,16.461 12.255,16.447 11.938 C 16.433 11.617,16.445 11.525,16.538 11.247 C 16.812 10.422,17.437 9.911,18.420 9.706 C 18.582 9.672,18.922 9.681,19.128 9.725 M2.723 9.876 C 2.656 9.961,2.600 10.042,2.600 10.056 C 2.600 10.069,3.481 10.080,4.559 10.080 L 6.517 10.080 6.619 9.931 C 6.674 9.849,6.720 9.768,6.720 9.751 C 6.720 9.734,5.849 9.720,4.783 9.720 L 2.847 9.720 2.723 9.876 M1.195 10.750 C 0.946 11.026,0.709 11.000,3.514 11.000 L 6.038 11.000 6.095 10.910 C 6.126 10.861,6.164 10.780,6.179 10.730 L 6.205 10.640 3.750 10.640 L 1.295 10.640 1.195 10.750 M3.711 11.630 C 3.647 11.703,3.560 11.858,3.560 11.898 C 3.560 11.911,4.095 11.916,4.750 11.911 L 5.940 11.900 5.952 11.730 L 5.965 11.560 4.868 11.560 C 3.875 11.560,3.767 11.567,3.711 11.630 " fill="#414146" stroke="none" fill-rule="evenodd"></path></svg>