<svg width="24" height="24" viewBox="0 0 24 24" fill="none" xmlns="http://www.w3.org/2000/svg"><path d="M10.582 6.045 C 10.534 6.180,9.109 14.686,9.058 15.146 C 9.022 15.466,9.049 15.480,9.667 15.480 C 10.298 15.479,10.420 15.456,10.478 15.329 C 10.553 15.164,10.766 14.025,11.103 11.986 L 11.420 10.071 12.000 10.099 C 13.051 10.148,13.305 10.211,13.400 10.440 C 13.488 10.653,13.420 11.353,13.126 13.260 C 12.748 15.706,12.776 15.432,12.900 15.464 C 13.031 15.496,14.115 15.461,14.210 15.421 C 14.248 15.405,14.307 15.300,14.341 15.186 C 14.458 14.793,14.936 12.000,15.043 11.078 C 15.067 10.869,15.081 10.473,15.073 10.198 C 15.058 9.624,14.999 9.456,14.713 9.167 C 14.342 8.792,13.985 8.667,13.089 8.599 C 12.131 8.526,11.835 8.491,11.790 8.446 C 11.761 8.417,11.792 8.094,11.894 7.369 C 12.086 6.006,12.091 6.095,11.830 6.066 C 11.715 6.053,11.391 6.030,11.111 6.016 C 10.696 5.994,10.598 5.999,10.582 6.045 M17.010 8.590 C 16.846 8.601,16.786 8.624,16.742 8.692 C 16.661 8.818,16.549 9.431,15.965 12.940 C 15.329 16.760,15.185 17.696,15.217 17.820 C 15.251 17.959,15.447 18.000,16.087 18.000 C 16.574 18.000,16.637 17.992,16.655 17.930 C 16.690 17.807,16.834 17.043,16.962 16.300 C 17.030 15.904,17.098 15.569,17.113 15.556 C 17.128 15.543,17.522 15.511,17.989 15.484 C 19.354 15.407,19.788 15.310,20.229 14.984 C 20.950 14.451,21.534 13.543,21.782 12.573 C 21.883 12.178,21.960 11.364,21.960 10.685 L 21.960 10.270 21.770 9.905 C 21.537 9.458,21.072 8.965,20.699 8.770 L 20.457 8.645 19.343 8.602 C 18.280 8.562,17.467 8.558,17.010 8.590 M3.651 8.633 C 3.589 8.672,3.499 9.109,3.199 10.825 C 2.601 14.245,2.112 17.373,2.128 17.677 C 2.145 17.986,2.186 18.002,2.940 17.990 L 3.539 17.980 3.722 17.000 C 3.965 15.696,3.990 15.602,4.095 15.562 C 4.142 15.545,4.396 15.518,4.660 15.503 C 6.365 15.406,6.873 15.268,7.390 14.763 C 8.067 14.104,8.515 13.248,8.746 12.180 C 8.877 11.569,8.854 10.522,8.699 10.060 C 8.534 9.569,8.076 9.031,7.628 8.804 C 7.396 8.686,7.331 8.673,6.798 8.639 C 6.097 8.594,3.720 8.589,3.651 8.633 M19.177 10.125 C 19.864 10.196,20.222 10.394,20.320 10.758 C 20.401 11.062,20.281 12.141,20.101 12.708 C 19.893 13.368,19.547 13.718,18.968 13.856 C 18.426 13.986,17.360 14.051,17.360 13.955 C 17.360 13.855,17.767 11.488,17.880 10.935 C 18.034 10.174,18.063 10.089,18.172 10.068 C 18.276 10.048,18.628 10.068,19.177 10.125 M6.068 10.120 C 6.630 10.179,7.015 10.363,7.143 10.632 C 7.203 10.758,7.208 10.857,7.186 11.379 C 7.135 12.555,6.857 13.321,6.369 13.634 C 6.043 13.843,5.256 14.000,4.536 14.000 L 4.269 14.000 4.294 13.727 C 4.323 13.416,4.675 11.304,4.798 10.700 C 4.893 10.237,4.939 10.130,5.056 10.107 C 5.218 10.076,5.703 10.082,6.068 10.120 " fill="#373B4D" stroke="none" fill-rule="evenodd"></path></svg>