<svg width="24" height="24" viewBox="0 0 24 24" fill="none" xmlns="http://www.w3.org/2000/svg"><path d="M17.180 4.067 C 15.920 4.226,13.812 4.550,13.727 4.597 C 13.666 4.631,13.946 4.750,14.166 4.785 C 14.308 4.807,14.894 4.690,16.320 4.354 C 17.289 4.126,17.638 4.009,17.180 4.067 M19.760 4.188 C 19.560 4.221,17.283 4.729,16.644 4.883 C 15.944 5.051,15.805 5.110,15.966 5.170 C 16.336 5.308,20.655 6.440,20.808 6.440 C 20.900 6.440,20.891 6.393,20.657 5.700 C 20.424 5.008,20.156 4.341,20.070 4.241 C 20.002 4.161,19.960 4.154,19.760 4.188 M11.820 5.264 C 11.014 5.693,9.982 6.289,9.623 6.532 C 8.849 7.056,7.052 8.660,6.095 9.680 C 5.662 10.141,5.395 10.489,4.786 11.386 L 4.320 12.072 4.630 12.362 C 4.801 12.521,5.007 12.696,5.088 12.750 C 5.236 12.848,5.236 12.848,5.444 12.779 C 5.755 12.675,8.294 11.398,8.640 11.170 C 8.980 10.947,9.430 10.557,11.417 8.762 L 12.814 7.500 13.224 6.660 C 13.749 5.584,13.821 5.404,13.752 5.335 C 13.707 5.291,12.637 4.880,12.567 4.880 C 12.552 4.880,12.216 5.053,11.820 5.264 M14.511 5.470 C 14.322 5.686,13.512 7.295,13.529 7.420 C 13.544 7.528,13.612 7.523,15.480 7.256 C 18.167 6.872,19.200 6.702,19.200 6.642 C 19.200 6.608,18.790 6.472,18.180 6.304 C 17.673 6.164,14.655 5.400,14.610 5.400 C 14.589 5.400,14.545 5.431,14.511 5.470 M19.140 7.125 C 14.652 7.890,13.733 8.054,13.691 8.096 C 13.659 8.127,13.831 8.606,14.226 9.591 C 15.009 11.541,15.726 13.219,15.815 13.311 C 15.874 13.372,16.065 13.123,17.021 11.740 C 17.869 10.514,20.200 7.032,20.200 6.992 C 20.200 6.946,20.159 6.952,19.140 7.125 M20.729 7.270 C 20.396 7.722,19.350 9.263,17.729 11.690 L 16.185 14.000 16.254 14.145 C 16.356 14.358,18.637 18.146,19.307 19.216 C 19.991 20.306,20.237 20.659,20.282 20.613 C 20.301 20.595,20.335 20.283,20.358 19.920 C 20.421 18.928,20.789 11.684,20.985 7.550 C 21.003 7.177,20.998 7.000,20.969 7.000 C 20.946 7.000,20.838 7.122,20.729 7.270 M12.883 8.243 C 12.512 8.511,10.645 10.174,9.768 11.018 L 9.355 11.415 9.459 11.470 C 9.781 11.638,14.958 13.280,15.168 13.280 C 15.187 13.280,15.190 13.230,15.175 13.170 C 15.137 13.012,14.446 11.290,13.887 9.960 C 13.190 8.299,13.111 8.120,13.080 8.120 C 13.065 8.120,12.976 8.175,12.883 8.243 M8.060 12.154 C 7.774 12.304,7.128 12.641,6.623 12.903 C 5.624 13.422,5.520 13.488,5.520 13.603 C 5.520 13.715,5.906 14.783,6.386 16.000 C 6.865 17.216,7.077 17.688,7.134 17.669 C 7.156 17.661,7.207 17.557,7.248 17.438 C 7.321 17.223,8.640 11.994,8.640 11.919 C 8.640 11.854,8.601 11.870,8.060 12.154 M9.106 12.147 C 8.959 12.600,8.327 15.240,7.882 17.260 C 7.557 18.736,7.553 18.760,7.596 18.760 C 7.698 18.760,14.044 14.771,14.899 14.169 L 15.219 13.944 14.976 13.835 C 14.842 13.775,14.356 13.600,13.896 13.446 C 13.128 13.190,9.453 12.025,9.254 11.975 C 9.181 11.957,9.160 11.981,9.106 12.147 M4.004 12.789 C 3.971 12.915,3.224 16.679,3.088 17.400 C 3.066 17.521,3.053 17.626,3.061 17.634 C 3.115 17.690,4.582 14.345,4.783 13.707 L 4.853 13.485 4.745 13.343 C 4.579 13.125,4.197 12.721,4.116 12.678 C 4.054 12.645,4.038 12.661,4.004 12.789 M5.080 14.400 C 4.791 14.967,3.257 18.628,3.141 19.030 L 3.115 19.120 4.387 19.118 C 5.565 19.117,6.943 19.070,6.982 19.031 C 7.026 18.987,6.315 17.075,5.506 15.062 L 5.170 14.224 5.080 14.400 M15.058 14.772 C 13.596 15.660,8.852 18.701,8.270 19.123 L 8.114 19.235 8.277 19.279 C 8.575 19.359,10.686 19.655,16.540 20.435 C 19.785 20.868,19.720 20.861,19.720 20.802 C 19.720 20.701,19.352 20.068,18.139 18.080 C 16.829 15.932,15.826 14.360,15.765 14.360 C 15.749 14.360,15.431 14.545,15.058 14.772 M4.266 19.750 C 4.233 19.803,4.326 19.818,5.360 19.919 C 9.975 20.370,16.353 20.938,16.524 20.913 C 16.761 20.878,9.484 19.880,8.430 19.802 C 7.595 19.741,4.297 19.700,4.266 19.750 " fill="#373B4D" stroke="none" fill-rule="evenodd"></path></svg>