<svg width="24" height="24" viewBox="0 0 24 24" fill="none" xmlns="http://www.w3.org/2000/svg"><path d="M14.200 4.134 C 14.200 4.142,14.338 4.390,14.506 4.685 C 14.919 5.408,15.485 6.580,15.634 7.020 C 15.774 7.435,15.975 8.218,16.042 8.609 C 16.073 8.788,16.082 9.282,16.070 10.089 L 16.052 11.300 15.904 11.880 C 15.823 12.199,15.740 12.476,15.721 12.495 C 15.650 12.566,14.887 12.073,13.480 11.047 C 11.620 9.691,10.262 8.576,8.264 6.766 C 7.738 6.290,7.270 5.873,7.224 5.841 C 7.142 5.783,7.142 5.783,7.228 5.921 C 7.730 6.720,9.123 8.500,10.766 10.440 C 11.659 11.494,11.775 11.638,11.753 11.661 C 11.729 11.684,11.078 11.260,10.219 10.661 C 9.362 10.063,8.181 9.177,7.103 8.323 C 5.294 6.891,4.980 6.647,4.964 6.662 C 4.934 6.693,5.157 6.993,5.872 7.885 C 8.105 10.667,9.812 12.473,12.330 14.714 C 12.786 15.121,13.160 15.477,13.160 15.505 C 13.160 15.624,11.701 16.179,10.960 16.341 C 10.496 16.442,8.803 16.469,8.198 16.384 C 6.797 16.188,5.504 15.714,3.757 14.756 C 3.481 14.604,3.232 14.480,3.205 14.480 C 3.012 14.480,4.770 16.396,5.634 17.126 C 7.117 18.380,8.901 19.240,10.891 19.661 C 11.532 19.796,12.342 19.853,13.160 19.820 C 14.239 19.776,14.624 19.681,16.339 19.032 C 17.498 18.593,17.486 18.596,18.440 18.572 L 19.260 18.552 19.520 18.721 C 19.663 18.813,20.013 19.122,20.298 19.406 C 20.583 19.690,20.837 19.914,20.862 19.905 C 20.923 19.881,20.960 19.593,20.960 19.144 C 20.960 17.972,20.661 17.125,19.617 15.335 C 19.546 15.213,19.546 15.195,19.631 14.675 C 19.781 13.756,19.822 13.117,19.770 12.513 C 19.548 9.934,18.037 7.180,15.820 5.315 C 15.147 4.749,14.200 4.058,14.200 4.134 " fill="#373B4D" stroke="none" fill-rule="evenodd"></path></svg>